<?xml version="1.0" encoding="UTF-8" standalone="no"?>
<!-- Created with Inkscape (http://www.inkscape.org/) -->

<svg
   width="15.999999mm"
   height="26.425056mm"
   viewBox="0 0 15.999999 26.425056"
   version="1.1"
   id="svg1"
   inkscape:version="1.3.2 (091e20e, 2023-11-25, custom)"
   sodipodi:docname="Panel mount potentiometer - flipped.svg"
   xmlns:inkscape="http://www.inkscape.org/namespaces/inkscape"
   xmlns:sodipodi="http://sodipodi.sourceforge.net/DTD/sodipodi-0.dtd"
   xmlns="http://www.w3.org/2000/svg"
   xmlns:svg="http://www.w3.org/2000/svg">
  <sodipodi:namedview
     id="namedview1"
     pagecolor="#ffffff"
     bordercolor="#000000"
     borderopacity="0.25"
     inkscape:showpageshadow="2"
     inkscape:pageopacity="0.0"
     inkscape:pagecheckerboard="0"
     inkscape:deskcolor="#d1d1d1"
     inkscape:document-units="mm"
     inkscape:zoom="2.0031716"
     inkscape:cx="-1.9968334"
     inkscape:cy="63.149857"
     inkscape:window-width="1920"
     inkscape:window-height="991"
     inkscape:window-x="-9"
     inkscape:window-y="1341"
     inkscape:window-maximized="1"
     inkscape:current-layer="layer1" />
  <defs
     id="defs1" />
  <g
     inkscape:label="Layer 1"
     inkscape:groupmode="layer"
     id="layer1"
     transform="translate(-26.458513,-36.171722)">
    <rect
       style="fill:#5ca8ff;fill-opacity:1;stroke:#000000;stroke-width:0.132027"
       id="rect1"
       width="15.867972"
       height="15.867973"
       x="-42.392498"
       y="-62.530766"
       transform="scale(-1)" />
    <rect
       style="fill:#aeaeae;fill-opacity:1;stroke:#000000;stroke-width:0.132027"
       id="rect2"
       width="13.867973"
       height="13.867973"
       x="-41.392498"
       y="-61.530766"
       transform="scale(-1)" />
    <rect
       style="fill:#474747;fill-opacity:1;stroke:#000000;stroke-width:0.132027"
       id="rect3"
       width="3.5405793"
       height="1.5189453"
       x="-36.228802"
       y="-55.356251"
       rx="1.1913722"
       ry="1.6428572"
       transform="scale(-1)" />
    <path
       id="path3"
       style="fill:#e0e0e0;fill-opacity:1;stroke:#000000;stroke-width:0.132027"
       d="m 34.458512,58.064009 a 3.4671581,3.4671581 0 0 0 3.466972,-3.466971 3.4671581,3.4671581 0 0 0 -3.466972,-3.467489 3.4671581,3.4671581 0 0 0 -3.466972,3.467489 3.4671581,3.4671581 0 0 0 3.466972,3.466971 z m 0,-0.858345 a 2.6086237,2.6086237 0 0 1 -2.608626,-2.608626 2.6086237,2.6086237 0 0 1 2.608626,-2.608627 2.6086237,2.6086237 0 0 1 2.608627,2.608627 2.6086237,2.6086237 0 0 1 -2.608627,2.608626 z" />
    <g
       id="g4"
       transform="rotate(180,34.628289,49.38425)">
      <rect
         style="fill:#e0e0e0;fill-opacity:1;stroke:#000000;stroke-width:0.132027"
         id="rect4"
         width="1.8491511"
         height="11.293029"
         x="29.124128"
         y="51.237736" />
      <rect
         style="fill:#e0e0e0;fill-opacity:1;stroke:#000000;stroke-width:0.132027"
         id="rect4-0"
         width="1.8491511"
         height="11.293029"
         x="33.873489"
         y="51.237736" />
      <rect
         style="fill:#e0e0e0;fill-opacity:1;stroke:#000000;stroke-width:0.132027"
         id="rect4-0-8"
         width="1.8491511"
         height="11.293029"
         x="38.622852"
         y="51.237736" />
    </g>
  </g>
</svg>
